<?xml version="1.0" encoding="utf-8"?>
<!-- Generator: Adobe Illustrator 15.0.2, SVG Export Plug-In . SVG Version: 6.00 Build 0)  -->
<!DOCTYPE svg PUBLIC "-//W3C//DTD SVG 1.1//EN" "http://www.w3.org/Graphics/SVG/1.1/DTD/svg11.dtd">
<svg version="1.1" xmlns="http://www.w3.org/2000/svg" xmlns:xlink="http://www.w3.org/1999/xlink" x="0px" y="0px" width="500px"
	 height="500px" viewBox="-150 -150 500 500" enable-background="new -150 -150 500 500" xml:space="preserve">
<g id="Layer_2">
	<circle fill="#B50B0B" cx="100.5" cy="101.998" r="222"/>
</g>
<g id="Layer_1">
	<polygon id="XMLID_5_" fill="#FFFFFF" points="202.474,259.944 -43.738,-23.525 -25.111,-38.535 238.243,224.364 	"/>
	<polygon id="XMLID_4_" fill="#FFFFFF" points="-39.384,224.364 223.97,-38.535 242.597,-23.525 -3.615,259.944 	"/>
	<g>
		<g>
			<path fill="#FFFFFF" d="M-23.141,102.108c0-23.754,5.202-45.227,15.442-64.213l-22.098-25.447
				c-17.2,26.012-25.911,56.046-25.911,89.661c0,34.739,9.382,65.654,27.858,92.274l23.12-23.078
				C-16.937,151.113-23.141,127.949-23.141,102.108z"/>
		</g>
		<g>
			<path fill="#FFFFFF" d="M150.782,220.356c-15.43,7.3-32.409,11.01-50.842,11.01c-18.714,0-35.969-3.789-51.651-11.256
				l-21.005,24.184c21.525,11.598,45.542,17.48,71.839,17.48c26.479,0,50.663-5.923,72.337-17.608L150.782,220.356z"/>
		</g>
		<g>
			<path fill="#FFFFFF" d="M28.156-3.824c20.619-15.619,44.67-23.547,71.784-23.547c26.854,0,50.647,7.851,71.001,23.309
				l22.011-21.974c-26.774-21.052-58.238-31.731-93.829-31.731c-35.417,0-66.714,10.636-93.34,31.614L28.156-3.824z"/>
		</g>
		<g>
			<path fill="#FFFFFF" d="M206.659,37.77c10.175,19.019,15.338,40.532,15.338,64.338c0,25.895-6.158,49.103-18.271,69.334
				l22.907,22.874c18.519-26.613,27.936-57.503,27.936-92.208c0-33.58-8.737-63.588-25.979-89.585L206.659,37.77z"/>
		</g>
	</g>
</g>
</svg>
